<svg width="1756" height="405" viewBox="0 0 1756 405" fill="none" xmlns="http://www.w3.org/2000/svg">
<g clip-path="url(#clip0)">
<path d="M247.66 317.47L34.77 361.9L48.44 76.4398C48.89 67.1298 41.7 59.2198 32.39 58.7798C23.08 58.3298 15.17 65.5198 14.73 74.8298L0.0199885 382.07C-0.230012 387.29 1.94999 392.32 5.91999 395.71C8.99999 398.34 12.9 399.75 16.87 399.75C18.02 399.75 19.17 399.63 20.32 399.39L254.55 350.5C263.67 348.6 269.53 339.66 267.62 330.53C265.72 321.42 256.78 315.57 247.66 317.47Z" fill="#D6BD91"/>
<path d="M1711.22 11.48C1688.02 0.400048 1643.64 -8.28995 1563.92 13.26C1515.61 26.32 1466.15 48.14 1443.63 66.33C1437.49 71.29 1435.76 79.66 1438.92 86.52L1424.52 387.22C1424.08 396.53 1431.26 404.44 1440.57 404.88C1440.84 404.89 1441.12 404.9 1441.39 404.9C1450.34 404.9 1457.8 397.87 1458.23 388.83L1463.38 281.3C1502.16 272.13 1569.98 255.61 1630.97 227.15C1713.3 188.73 1755.04 141.01 1755.04 85.32C1755.06 41.6 1731.22 21.04 1711.22 11.48ZM1616.72 196.56C1563.4 221.44 1503.57 236.95 1465.08 246.2L1472.7 86.99C1492.51 74.18 1529.95 57.41 1572.73 45.85C1626.35 31.35 1671.52 29.93 1696.67 41.94C1713.48 49.97 1721.31 63.75 1721.31 85.32C1721.31 126.74 1686.12 164.17 1616.72 196.56Z" fill="#D6BD91"/>
<path d="M531.29 398.47C432.23 398.47 351.65 317.88 351.65 218.83C351.65 119.77 432.24 39.1899 531.29 39.1899C571.63 39.1899 637.14 67.0499 726 122C790.54 161.91 843.29 201.15 845.5 202.8L867 218.83L845.5 234.86C843.29 236.51 790.54 275.75 726 315.66C637.13 370.61 571.62 398.47 531.29 398.47ZM531.29 79.1799C454.29 79.1799 391.65 141.82 391.65 218.82C391.65 295.82 454.29 358.46 531.29 358.46C574.29 358.46 658.56 310.32 704.96 281.63C743.35 257.89 778.03 233.98 799.4 218.82C777.97 203.62 743.18 179.63 704.72 155.86C658.39 127.23 574.24 79.1799 531.29 79.1799Z" fill="#D6BD91"/>
<path d="M1135.81 398.47C1095.47 398.47 1029.96 370.61 941.1 315.66C876.56 275.75 823.81 236.51 821.6 234.86L800.1 218.83L821.6 202.8C823.81 201.15 876.56 161.91 941.1 122C1029.96 67.0499 1095.47 39.1899 1135.81 39.1899C1234.87 39.1899 1315.45 119.78 1315.45 218.83C1315.45 317.88 1234.86 398.47 1135.81 398.47ZM867.69 218.83C889.12 234.03 923.91 258.02 962.37 281.79C1008.71 310.43 1092.85 358.48 1135.81 358.48C1212.81 358.48 1275.45 295.84 1275.45 218.84C1275.45 141.84 1212.81 79.1999 1135.81 79.1999C1092.81 79.1999 1008.54 127.34 962.14 156.03C923.74 179.76 889.07 203.66 867.69 218.83Z" fill="#D6BD91"/>
<path d="M867.69 218.83C889.12 234.03 923.91 258.02 962.37 281.79C1008.71 310.43 1092.85 358.48 1135.81 358.48C1212.81 358.48 1275.45 295.84 1275.45 218.84C1275.45 141.84 1212.81 79.2002 1135.81 79.2002C1092.81 79.2002 1008.54 127.34 962.14 156.03C923.74 179.76 889.07 203.66 867.69 218.83Z" fill="#4E7E46"/>
<path d="M1084.73 163.84L1076.67 159.19V86.0898H1084.73V163.84Z" fill="#99382C"/>
<path d="M1081.58 101C1109.47 101 1132.08 78.3904 1132.08 50.5C1132.08 22.6096 1109.47 0 1081.58 0C1053.69 0 1031.08 22.6096 1031.08 50.5C1031.08 78.3904 1053.69 101 1081.58 101Z" fill="#6FC27D"/>
<path d="M1253.79 300.76L1245.74 296.11V223.01H1253.79V300.76Z" fill="#99382C"/>
<path d="M1250.65 237.92C1278.54 237.92 1301.15 215.31 1301.15 187.42C1301.15 159.53 1278.54 136.92 1250.65 136.92C1222.76 136.92 1200.15 159.53 1200.15 187.42C1200.15 215.31 1222.76 237.92 1250.65 237.92Z" fill="#6FC27D"/>
<path d="M930.2 172.69L982.53 202.91L1034.86 172.69L982.53 142.48L930.2 172.69Z" fill="#E3702F"/>
<path d="M1034.86 202.91L1087.19 172.69L1034.86 142.48L982.53 172.69L1034.86 202.91Z" fill="#E3702F"/>
<path d="M969.45 240.68L982.53 202.91L1034.86 172.69L1047.95 195.35L1087.19 172.69V202.91L930.2 293.56V263.34V293.56L877.87 263.34V233.13" fill="#AE4D27"/>
<path d="M982.53 202.91L930.2 172.69L916.5 210.82L969.45 240.68L982.53 202.91Z" fill="#BCDBF1"/>
<path d="M877.87 233.13L930.2 263.34L969.45 240.68L916.5 210.82L877.87 233.13Z" fill="#E3702F"/>
<path d="M1054.95 241.78C1064.48 241.78 1072.2 234.057 1072.2 224.53C1072.2 215.003 1064.48 207.28 1054.95 207.28C1045.42 207.28 1037.7 215.003 1037.7 224.53C1037.7 234.057 1045.42 241.78 1054.95 241.78Z" fill="#585346"/>
<path d="M1054.95 233.86C1060.1 233.86 1064.28 229.683 1064.28 224.53C1064.28 219.377 1060.1 215.2 1054.95 215.2C1049.8 215.2 1045.62 219.377 1045.62 224.53C1045.62 229.683 1049.8 233.86 1054.95 233.86Z" fill="white"/>
<path d="M993.42 280.59C1002.95 280.59 1010.67 272.867 1010.67 263.34C1010.67 253.813 1002.95 246.09 993.42 246.09C983.893 246.09 976.17 253.813 976.17 263.34C976.17 272.867 983.893 280.59 993.42 280.59Z" fill="#585346"/>
<path d="M993.42 272.67C998.573 272.67 1002.75 268.493 1002.75 263.34C1002.75 258.187 998.573 254.01 993.42 254.01C988.267 254.01 984.09 258.187 984.09 263.34C984.09 268.493 988.267 272.67 993.42 272.67Z" fill="white"/>
<path d="M1112.68 394.09V266.64L1002.31 202.91V330.37L1112.68 394.09Z" fill="#D6BD91"/>
<path d="M1250.65 314.43V186.98L1140.28 123.25V250.71L1250.65 314.43Z" fill="#D6BD91"/>
<path d="M1112.68 394.09L1250.65 314.43V186.98L1181.67 147.15L1112.68 266.64V394.09Z" fill="#E1D5C0"/>
<path d="M1181.67 147.15L1085.09 91.3901L1002.31 202.91L1112.68 266.64L1181.67 147.15Z" fill="#CA3728"/>
<path d="M1039.45 351.67V287.94L1067.04 303.3V367.6L1039.45 351.67Z" fill="#CA3728"/>
<path d="M1266.32 268.62C1246.26 321.18 1195.33 358.61 1135.81 358.61C1094.19 358.61 1013.89 313.5 966.79 284.64C957.35 294.44 948.01 304.35 938.87 314.41C939.62 314.87 940.35 315.34 941.1 315.8C1029.96 370.75 1095.47 398.61 1135.81 398.61C1216.28 398.61 1284.56 345.43 1307.35 272.37C1293.61 271.31 1279.95 270.01 1266.32 268.62Z" fill="#D6BD91"/>
<path d="M531.29 79.1802C454.29 79.1802 391.65 141.82 391.65 218.82C391.65 295.82 454.29 358.46 531.29 358.46C574.29 358.46 658.56 310.32 704.96 281.63C743.35 257.89 778.03 233.98 799.4 218.82C777.97 203.62 743.18 179.63 704.72 155.86C658.39 127.23 574.24 79.1802 531.29 79.1802Z" fill="#B5D99B"/>
<path d="M618.26 337.11L599.73 210.82L581.2 337.11C581.05 337.63 580.97 338.16 580.97 338.7C580.97 344.28 589.37 348.81 599.73 348.81C610.09 348.81 618.49 344.28 618.49 338.7C618.49 338.16 618.41 337.63 618.26 337.11Z" fill="#6FC27D"/>
<path d="M538.48 165.48L519.95 39.1802L501.42 165.47C501.27 165.99 501.19 166.52 501.19 167.06C501.19 172.64 509.59 177.17 519.95 177.17C530.31 177.17 538.71 172.64 538.71 167.06C538.71 166.53 538.63 166 538.48 165.48Z" fill="#6FC27D"/>
<path d="M574.98 245.02L568.54 241.3V182.8H574.98V245.02Z" fill="#99382C"/>
<path d="M572.47 194.74C594.793 194.74 612.89 176.643 612.89 154.32C612.89 131.997 594.793 113.9 572.47 113.9C550.147 113.9 532.05 131.997 532.05 154.32C532.05 176.643 550.147 194.74 572.47 194.74Z" fill="#7CC472"/>
<path d="M441.26 190.52L434.82 186.8V128.3H441.26V190.52Z" fill="#99382C"/>
<path d="M438.75 140.24C461.073 140.24 479.17 122.143 479.17 99.8199C479.17 77.4966 461.073 59.3999 438.75 59.3999C416.427 59.3999 398.33 77.4966 398.33 99.8199C398.33 122.143 416.427 140.24 438.75 140.24Z" fill="#7CC472"/>
<path d="M741.6 295.99L731.64 290.24V199.89H741.6V295.99Z" fill="#99382C"/>
<path d="M737.71 218.32C772.184 218.32 800.13 190.374 800.13 155.9C800.13 121.426 772.184 93.48 737.71 93.48C703.236 93.48 675.29 121.426 675.29 155.9C675.29 190.374 703.236 218.32 737.71 218.32Z" fill="#4E7E46"/>
<path d="M529.91 364.6L519.95 358.85V268.5H529.91V364.6Z" fill="#99382C"/>
<path d="M526.02 286.93C560.494 286.93 588.44 258.983 588.44 224.51C588.44 190.036 560.494 162.09 526.02 162.09C491.546 162.09 463.6 190.036 463.6 224.51C463.6 258.983 491.546 286.93 526.02 286.93Z" fill="#4E7E46"/>
<path d="M657.26 330.57L650.82 326.85V268.35H657.26V330.57Z" fill="#99382C"/>
<path d="M654.75 280.29C677.073 280.29 695.17 262.194 695.17 239.87C695.17 217.547 677.073 199.45 654.75 199.45C632.427 199.45 614.33 217.547 614.33 239.87C614.33 262.194 632.427 280.29 654.75 280.29Z" fill="#7CC472"/>
<path d="M611.84 164.33L605.39 160.61V102.11H611.84V164.33Z" fill="#99382C"/>
<path d="M609.32 114.05C631.643 114.05 649.74 95.9533 649.74 73.63C649.74 51.3066 631.643 33.21 609.32 33.21C586.997 33.21 568.9 51.3066 568.9 73.63C568.9 95.9533 586.997 114.05 609.32 114.05Z" fill="#7CC472"/>
<path d="M441.26 346.15L434.82 342.43V283.93H441.26V346.15Z" fill="#99382C"/>
<path d="M438.75 295.87C461.073 295.87 479.17 277.773 479.17 255.45C479.17 233.126 461.073 215.03 438.75 215.03C416.427 215.03 398.33 233.126 398.33 255.45C398.33 277.773 416.427 295.87 438.75 295.87Z" fill="#7CC472"/>
<path d="M777.18 234.42C757.18 248.19 732 264.98 704.96 281.7C658.56 310.39 574.29 358.53 531.29 358.53C467.27 358.53 413.18 315.22 396.76 256.36C384.21 261.01 371.81 266.14 359.59 271.75C382.22 345.09 450.63 398.53 531.29 398.53C571.63 398.53 637.14 370.67 726 315.72C766.29 290.81 801.98 266.16 823.65 250.75C810.92 244.25 798.06 239.96 784.63 236.23C782.1 235.61 779.63 235.01 777.18 234.42Z" fill="#D6BD91"/>
</g>
<defs>
<clipPath id="clip0">
<rect width="1755.06" height="404.89" fill="white"/>
</clipPath>
</defs>
</svg>
